<svg width="16" height="17" viewBox="0 0 16 17" fill="none" xmlns="http://www.w3.org/2000/svg">
<g clip-path="url(#clip0_1_1015)">
<path d="M7.99994 0.488403C6.41769 0.488403 4.87097 0.957595 3.55538 1.83665C2.23979 2.7157 1.21441 3.96513 0.608906 5.42694C0.00340522 6.88874 -0.155021 8.49728 0.15366 10.0491C0.462342 11.601 1.22427 13.0264 2.34309 14.1453C3.46191 15.2641 4.88737 16.026 6.43922 16.3347C7.99107 16.6434 9.5996 16.4849 11.0614 15.8794C12.5232 15.2739 13.7726 14.2486 14.6517 12.933C15.5308 11.6174 15.9999 10.0707 15.9999 8.4884C15.9999 6.36667 15.1571 4.33184 13.6568 2.83155C12.1565 1.33126 10.1217 0.488403 7.99994 0.488403V0.488403ZM10.2757 5.69472C10.2757 5.84525 10.2126 5.90525 10.0652 5.90525C9.78205 5.90525 9.49889 5.90525 9.21678 5.91682C8.93468 5.9284 8.78099 6.05682 8.78099 6.35156C8.77468 6.66735 8.78099 6.97682 8.78099 7.29893H9.99257C10.1652 7.29893 10.2242 7.35788 10.2242 7.53156C10.2242 7.95261 10.2242 8.37577 10.2242 8.80104C10.2242 8.97261 10.1694 9.0263 9.99573 9.02735H8.77047V12.4526C8.77047 12.6358 8.71363 12.6937 8.53257 12.6937H7.21468C7.05573 12.6937 6.99363 12.6316 6.99363 12.4726V9.03261H5.94731C5.7831 9.03261 5.72415 8.97261 5.72415 8.80735C5.72415 8.38139 5.72415 7.95577 5.72415 7.53051C5.72415 7.3663 5.78626 7.30419 5.94836 7.30419H6.99363V6.38314C6.98122 5.96941 7.08049 5.55998 7.28099 5.19788C7.48943 4.83231 7.82343 4.55478 8.22099 4.41682C8.47901 4.32295 8.75171 4.27589 9.02626 4.27788H10.061C10.2094 4.27788 10.2715 4.34314 10.2715 4.4884C10.2768 4.89367 10.2768 5.29472 10.2757 5.69472Z" fill="white"/>
</g>
<defs>
<clipPath id="clip0_1_1015">
<rect width="16" height="16" fill="white" transform="translate(0 0.488403)"/>
</clipPath>
</defs>
</svg>
