<svg width="274" height="713" viewBox="0 0 274 713" fill="none" xmlns="http://www.w3.org/2000/svg">
<g opacity="0.05">
<path d="M508.118 244.215C460.993 196.708 457.311 191.512 457.311 191.512L273.226 378.572L82.5148 190.77C-13.209 260.546 -23.5178 417.172 40.5435 481.753C104.605 546.333 273.963 712.609 273.963 712.609L486.764 498.083C560.398 424.595 560.398 296.919 508.118 244.215ZM458.783 470.618L273.963 656.936C223.155 607.202 116.386 501.795 69.2604 453.545C48.643 432.76 37.5982 392.676 40.5435 349.622C43.4889 309.538 58.9522 273.165 81.7787 245.7L268.809 433.503L457.311 247.927C463.938 254.608 472.037 262.773 480.873 271.681C514.745 307.311 519.163 409.749 458.783 470.618Z" fill="url(#paint0_linear_43_836)"/>
<path d="M113.442 409.016C109.024 404.562 100.925 386.004 103.134 357.054L256.292 506.257V446.873L83.9886 278.37C71.4708 299.155 63.3713 324.393 61.1623 351.116C58.217 387.489 67.053 421.635 83.2524 437.965C122.278 477.307 202.539 557.476 255.556 609.438V550.053C205.485 501.804 145.841 441.677 113.442 409.016Z" fill="url(#paint1_linear_43_836)"/>
<path d="M271.753 88.334L298.998 116.541L248.191 168.503L271.753 192.256L323.297 140.295L350.542 168.503L271.753 248.672L192.229 168.503L271.753 88.334Z" fill="url(#paint2_linear_43_836)"/>
<path d="M271.754 0L104.605 168.503L271.754 337.006L438.903 168.503L271.754 0ZM156.149 168.503L271.754 51.9612L387.359 168.503L271.754 285.045L156.149 168.503Z" fill="url(#paint3_linear_43_836)"/>
</g>
<defs>
<linearGradient id="paint0_linear_43_836" x1="0" y1="451.689" x2="545" y2="451.689" gradientUnits="userSpaceOnUse">
<stop stop-color="#2E3192"/>
<stop offset="1" stop-color="#1BFFFF"/>
</linearGradient>
<linearGradient id="paint1_linear_43_836" x1="60.6011" y1="443.904" x2="256.292" y2="443.904" gradientUnits="userSpaceOnUse">
<stop stop-color="#2E3192"/>
<stop offset="1" stop-color="#1BFFFF"/>
</linearGradient>
<linearGradient id="paint2_linear_43_836" x1="192.229" y1="168.503" x2="350.542" y2="168.503" gradientUnits="userSpaceOnUse">
<stop stop-color="#2E3192"/>
<stop offset="1" stop-color="#1BFFFF"/>
</linearGradient>
<linearGradient id="paint3_linear_43_836" x1="104.605" y1="168.503" x2="438.903" y2="168.503" gradientUnits="userSpaceOnUse">
<stop stop-color="#2E3192"/>
<stop offset="1" stop-color="#1BFFFF"/>
</linearGradient>
</defs>
</svg>
