<svg width="16" height="17" viewBox="0 0 16 17" fill="none" xmlns="http://www.w3.org/2000/svg">
<g clip-path="url(#clip0_1_1007)">
<path d="M8 10.129C8.90609 10.129 9.64062 9.3945 9.64062 8.4884C9.64062 7.58231 8.90609 6.84778 8 6.84778C7.09391 6.84778 6.35938 7.58231 6.35938 8.4884C6.35938 9.3945 7.09391 10.129 8 10.129Z" fill="white"/>
<path d="M8 0.675903C3.68528 0.675903 0.1875 4.17368 0.1875 8.4884C0.1875 12.8031 3.68528 16.3009 8 16.3009C12.3147 16.3009 15.8125 12.8031 15.8125 8.4884C15.8125 4.17368 12.3147 0.675903 8 0.675903ZM12.8268 10.474C12.7893 11.2168 12.5806 11.9492 12.0393 12.4847C11.4928 13.0254 10.7569 13.2268 10.007 13.2639H5.99306C5.24306 13.2268 4.50725 13.0255 3.96072 12.4847C3.41941 11.9492 3.21072 11.2168 3.17322 10.474V6.50278C3.21072 5.76003 3.41944 5.02759 3.96072 4.49203C4.50725 3.9514 5.24316 3.74997 5.99306 3.71287H10.0069C10.7569 3.74997 11.4927 3.95131 12.0393 4.49203C12.5806 5.02759 12.7893 5.76003 12.8268 6.50278L12.8268 10.474Z" fill="white"/>
<path d="M9.95627 4.61777C8.97858 4.59095 7.02171 4.59095 6.04402 4.61777C5.53524 4.63173 4.95846 4.75839 4.59596 5.14558C4.21927 5.54805 4.07692 6.0343 4.06249 6.57827C4.03711 7.53302 4.06249 10.3986 4.06249 10.3986C4.07902 10.9425 4.21927 11.4289 4.59596 11.8313C4.95846 12.2186 5.53524 12.3452 6.04402 12.3591C7.02171 12.386 8.97858 12.386 9.95627 12.3591C10.465 12.3452 11.0418 12.2185 11.4043 11.8313C11.781 11.4289 11.9234 10.9426 11.9378 10.3986V6.57827C11.9234 6.0343 11.781 5.54805 11.4043 5.14558C11.0417 4.75827 10.4649 4.63173 9.95627 4.61777ZM8.00002 11.0314C7.49707 11.0314 7.00541 10.8823 6.58722 10.6029C6.16903 10.3234 5.84309 9.92627 5.65062 9.46161C5.45815 8.99694 5.40779 8.48563 5.50591 7.99234C5.60403 7.49906 5.84623 7.04594 6.20187 6.6903C6.55751 6.33466 7.01062 6.09247 7.50391 5.99435C7.9972 5.89623 8.5085 5.94659 8.97317 6.13906C9.43784 6.33153 9.83499 6.65747 10.1144 7.07566C10.3938 7.49384 10.543 7.9855 10.543 8.48845C10.543 9.16289 10.2751 9.8097 9.79817 10.2866C9.32127 10.7635 8.67445 11.0314 8.00002 11.0314ZM10.5538 6.47039C10.4532 6.47037 10.3549 6.44052 10.2713 6.38462C10.1877 6.32872 10.1225 6.24928 10.084 6.15634C10.0455 6.06341 10.0355 5.96115 10.0551 5.8625C10.0748 5.76385 10.1232 5.67324 10.1943 5.60212C10.2655 5.53101 10.3561 5.48258 10.4547 5.46297C10.5534 5.44335 10.6557 5.45343 10.7486 5.49193C10.8415 5.53043 10.9209 5.59562 10.9768 5.67925C11.0327 5.76289 11.0625 5.86121 11.0625 5.9618C11.0625 6.0286 11.0494 6.09474 11.0238 6.15646C10.9982 6.21817 10.9608 6.27424 10.9135 6.32147C10.8663 6.3687 10.8102 6.40616 10.7485 6.43171C10.6867 6.45726 10.6206 6.47041 10.5538 6.47039Z" fill="white"/>
</g>
<defs>
<clipPath id="clip0_1_1007">
<rect width="16" height="16" fill="black" transform="translate(0 0.488403)"/>
</clipPath>
</defs>
</svg>
