<svg width="30" height="30" viewBox="0 0 30 30" fill="none" xmlns="http://www.w3.org/2000/svg">
<path d="M23.7744 19.1826C23.0064 18.6615 21.9974 18.6641 21.2322 19.1893L20.1305 19.9455C18.9033 20.7877 17.2713 20.742 16.0917 19.8342C14.98 18.9785 13.919 18.0611 12.9114 17.0889C11.9391 16.0813 11.0217 15.0203 10.1661 13.9085C9.2582 12.729 9.21254 11.097 10.0548 9.86976L10.811 8.76801C11.3361 8.00283 11.3388 6.99389 10.8176 6.22589L7.66388 1.57823C6.79266 0.294421 5.09691 -0.135704 3.72132 0.581952L3.72048 0.582327C0.941821 2.03208 -0.22396 5.38439 1.04916 8.24826C2.8817 12.3709 5.34226 16.1418 8.31179 19.4442L10.5561 21.6885C13.8585 24.6579 17.6294 27.1185 21.752 28.9511C24.6159 30.2242 27.9682 29.0584 29.4179 26.2798L29.4183 26.2789C30.1359 24.9034 29.7059 23.2076 28.422 22.3364L23.7744 19.1826Z" fill="white"/>
</svg>
