<svg width="17" height="17" viewBox="0 0 17 17" fill="none" xmlns="http://www.w3.org/2000/svg">
<path d="M15.1666 12.2684V14.2684C15.1674 14.4541 15.1294 14.6378 15.055 14.808C14.9806 14.9781 14.8715 15.1308 14.7347 15.2563C14.5979 15.3818 14.4364 15.4774 14.2605 15.5369C14.0846 15.5963 13.8982 15.6184 13.7133 15.6017C11.6619 15.3788 9.69131 14.6778 7.95998 13.5551C6.34919 12.5315 4.98353 11.1658 3.95998 9.55505C2.83329 7.81586 2.13214 5.83572 1.91331 3.77505C1.89665 3.5907 1.91856 3.40489 1.97764 3.22947C2.03673 3.05405 2.13169 2.89285 2.25649 2.75613C2.38128 2.61942 2.53318 2.51019 2.7025 2.4354C2.87183 2.36061 3.05487 2.32189 3.23998 2.32172H5.23998C5.56351 2.31854 5.87717 2.43311 6.12248 2.64408C6.3678 2.85504 6.52803 3.14802 6.57331 3.46839C6.65772 4.10843 6.81428 4.73687 7.03998 5.34172C7.12967 5.58034 7.14908 5.83966 7.09591 6.08897C7.04274 6.33828 6.91922 6.56713 6.73998 6.74839L5.89331 7.59505C6.84235 9.26408 8.22428 10.646 9.89331 11.5951L10.74 10.7484C10.9212 10.5691 11.1501 10.4456 11.3994 10.3924C11.6487 10.3393 11.908 10.3587 12.1466 10.4484C12.7515 10.6741 13.3799 10.8306 14.02 10.9151C14.3438 10.9607 14.6396 11.1239 14.851 11.3734C15.0624 11.6229 15.1748 11.9414 15.1666 12.2684Z" fill="url(#paint0_linear_1_997)"/>
<defs>
<linearGradient id="paint0_linear_1_997" x1="1.9079" y1="8.96439" x2="15.1671" y2="8.96439" gradientUnits="userSpaceOnUse">
<stop stop-color="#2E3192"/>
<stop offset="1" stop-color="#1BFFFF"/>
</linearGradient>
</defs>
</svg>
