<svg width="16" height="17" viewBox="0 0 16 17" fill="none" xmlns="http://www.w3.org/2000/svg">
<g clip-path="url(#clip0_1_1012)">
<path d="M8 0.488403C3.58241 0.488403 0 4.07081 0 8.4884C0 12.906 3.58241 16.4884 8 16.4884C12.4176 16.4884 16 12.906 16 8.4884C16 4.07081 12.4176 0.488403 8 0.488403ZM12.0134 6.60943V7.69265C11.5027 7.69284 11.0064 7.59275 10.5383 7.39528C10.2373 7.26822 9.95694 7.1045 9.70047 6.90665L9.70816 10.2408C9.70494 10.9916 9.40791 11.697 8.87031 12.2283C8.43281 12.6608 7.87844 12.9359 7.27756 13.0249C7.13637 13.0458 6.99269 13.0565 6.84737 13.0565C6.20416 13.0565 5.5935 12.8482 5.09397 12.4637C4.99997 12.3913 4.91006 12.3129 4.82447 12.2283C4.24184 11.6525 3.94141 10.8721 3.992 10.051C4.03059 9.42606 4.28081 8.83003 4.69794 8.36287C5.24981 7.74468 6.02187 7.40156 6.84737 7.40156C6.99269 7.40156 7.13637 7.41247 7.27756 7.43337V7.83387V8.948C7.14369 8.90384 7.00072 8.87956 6.85184 8.87956C6.09766 8.87956 5.4875 9.49487 5.49878 10.2496C5.50594 10.7325 5.76972 11.1547 6.15878 11.3873C6.34162 11.4967 6.55197 11.5645 6.77644 11.5768C6.95231 11.5864 7.12119 11.5619 7.27756 11.5103C7.81641 11.3323 8.20512 10.8262 8.20512 10.2292L8.20691 7.99653V3.92028H9.69866C9.70009 4.06809 9.71509 4.21231 9.74297 4.35206C9.85556 4.91772 10.1744 5.40847 10.6182 5.74303C11.0051 6.03487 11.4869 6.20787 12.0091 6.20787C12.0095 6.20787 12.0138 6.20787 12.0134 6.20753V6.60943H12.0134Z" fill="white"/>
</g>
<defs>
<clipPath id="clip0_1_1012">
<rect width="16" height="16" fill="white" transform="translate(0 0.488403)"/>
</clipPath>
</defs>
</svg>
