<svg width="16" height="17" viewBox="0 0 16 17" fill="none" xmlns="http://www.w3.org/2000/svg">
<g clip-path="url(#clip0_1_1001)">
<path d="M10.2105 6.27791L10.1947 6.26212C9.67147 5.74167 8.98003 5.42451 8.24424 5.36746C7.50845 5.3104 6.77638 5.51717 6.17916 5.95074C5.58195 6.38431 5.15861 7.01634 4.98497 7.73362C4.81133 8.4509 4.89875 9.20658 5.23155 9.86528L5.36839 10.1348L5.1126 11.3748V11.3905L6.34102 11.099L6.62102 11.2379C7.20379 11.5272 7.86262 11.6263 8.50469 11.5213C9.14676 11.4163 9.73971 11.1125 10.2 10.6526C10.7778 10.072 11.1031 9.28666 11.1051 8.46744C11.1071 7.64823 10.7856 6.86135 10.2105 6.27791ZM10.0863 9.75159C9.93576 9.98843 9.69681 10.2779 9.39892 10.3505C8.8726 10.4779 8.07155 10.3505 7.06839 9.42317L7.05576 9.41159C6.18313 8.59686 5.95155 7.91791 6.00313 7.38001C6.03366 7.07475 6.28839 6.79896 6.50313 6.61791C6.53719 6.5889 6.57758 6.56831 6.62107 6.5578C6.66455 6.54729 6.70989 6.54715 6.75344 6.55739C6.79698 6.56764 6.83751 6.58798 6.87174 6.61678C6.90597 6.64558 6.93295 6.68202 6.9505 6.72317L7.27366 7.46001C7.29475 7.50704 7.30267 7.55892 7.29655 7.61009C7.29043 7.66127 7.27051 7.70981 7.23892 7.75054L7.07471 7.96107C7.04058 8.00477 7.02025 8.05765 7.01631 8.11296C7.01237 8.16827 7.02501 8.2235 7.0526 8.27159C7.20866 8.50112 7.39529 8.70829 7.60734 8.88738C7.835 9.10769 8.09393 9.2932 8.37576 9.43791C8.42709 9.45875 8.48348 9.46377 8.53769 9.45233C8.59189 9.44089 8.64144 9.41351 8.67997 9.3737L8.86839 9.18317C8.90356 9.14286 8.94933 9.11321 9.00049 9.09758C9.05165 9.08195 9.10617 9.08097 9.15787 9.09475L9.92629 9.3158C9.969 9.32831 10.0082 9.35056 10.0409 9.38081C10.0735 9.41106 10.0987 9.44848 10.1144 9.49012C10.1301 9.53176 10.136 9.57649 10.1315 9.62076C10.1269 9.66504 10.1122 9.70767 10.0884 9.74528L10.0863 9.75159Z" fill="white"/>
<path d="M7.99994 0.488403C6.41769 0.488403 4.87097 0.957595 3.55538 1.83665C2.23979 2.7157 1.21441 3.96513 0.608906 5.42694C0.00340522 6.88874 -0.155021 8.49728 0.15366 10.0491C0.462342 11.601 1.22427 13.0264 2.34309 14.1453C3.46191 15.2641 4.88737 16.026 6.43922 16.3347C7.99107 16.6434 9.5996 16.4849 11.0614 15.8794C12.5232 15.2739 13.7726 14.2486 14.6517 12.933C15.5308 11.6174 15.9999 10.0707 15.9999 8.4884C15.9999 6.36667 15.1571 4.33184 13.6568 2.83155C12.1565 1.33126 10.1217 0.488403 7.99994 0.488403V0.488403ZM11.9652 8.58209C11.9436 9.24649 11.7555 9.89483 11.4181 10.4676C11.0807 11.0404 10.6049 11.5193 10.0343 11.8603C9.4637 12.2014 8.81659 12.3936 8.15234 12.4195C7.48809 12.4454 6.82798 12.304 6.23257 12.0084L4.23257 12.4842C4.20234 12.4911 4.17071 12.4888 4.1418 12.4776C4.1129 12.4663 4.08804 12.4466 4.07047 12.421C4.05845 12.4039 4.0501 12.3846 4.04594 12.3641C4.04177 12.3436 4.04188 12.3225 4.04626 12.3021L4.46731 10.2579C4.19208 9.71859 4.0439 9.12348 4.03411 8.5181C4.02432 7.91273 4.15318 7.31313 4.41082 6.76523C4.66846 6.21733 5.04805 5.73564 5.52054 5.35704C5.99303 4.97845 6.54588 4.71299 7.13677 4.58098C7.72766 4.44897 8.34092 4.45391 8.9296 4.59543C9.51829 4.73696 10.0668 5.0113 10.5331 5.39747C10.9994 5.78363 11.3712 6.27138 11.62 6.82337C11.8687 7.37535 11.9879 7.97695 11.9684 8.58209H11.9652Z" fill="white"/>
</g>
<defs>
<clipPath id="clip0_1_1001">
<rect width="16" height="16" fill="white" transform="translate(0 0.488403)"/>
</clipPath>
</defs>
</svg>
