<svg width="26" height="24" viewBox="0 0 26 24" fill="none" xmlns="http://www.w3.org/2000/svg">
<path d="M25.5337 17.0502V20.7153C25.5337 22.2942 24.6856 23.4381 23.1556 23.9097C22.9914 23.961 22.8205 23.9879 22.6485 23.9894C16.0694 23.9894 9.49036 23.9894 2.91224 24C1.6262 24 -0.000798906 22.3951 0.00592424 21.0668C0.0328168 15.2253 0.0308947 9.38421 0.000160312 3.5434C-0.00464193 2.7203 0.0962064 1.98459 0.606205 1.33437C1.16807 0.618834 1.89993 0.066575 2.80371 0.036801C4.86579 -0.0323513 6.93364 0.0166323 8.99669 0.0195137C9.05033 0.0266083 9.10311 0.0391577 9.1542 0.0569697C8.53183 0.510301 7.91138 0.928097 7.32935 1.39295C5.38732 2.94504 4.02636 4.89955 3.44337 7.32277C2.65964 10.5883 3.39919 13.5494 5.4363 16.1964C5.71952 16.5804 6.04135 16.9344 6.39675 17.2528C7.12573 17.8743 7.02777 18.5283 6.38715 19.2237C5.84641 19.8105 5.20387 20.3032 4.54789 20.891C5.10783 20.9448 5.64568 21.0495 6.18065 21.037C7.51759 21.0063 8.75177 20.4665 10.0417 20.1957C10.4105 20.1179 10.8446 20.0996 11.1942 20.2178C12.4474 20.65 13.7539 20.9086 15.0773 20.9861C16.9703 21.0994 18.7702 20.794 20.5518 20.187C22.4228 19.5454 24.0219 18.513 25.5337 17.0502Z" fill="white"/>
<path d="M8.69805 11.6428C9.57878 11.6428 10.3154 11.6303 11.0502 11.6476C11.3739 11.6553 11.7302 11.7436 11.7628 12.1278C11.783 12.3583 11.6533 12.6263 11.5227 12.8356C11.4661 12.9317 11.2394 12.9423 11.0896 12.9442C9.96872 12.9519 8.84788 12.9346 7.72799 12.9557C7.3246 12.9624 6.96636 12.8654 6.7906 12.5168C6.61483 12.1681 6.80884 11.8032 7.04223 11.5121C7.87206 10.4749 8.71438 9.44718 9.54901 8.41374C9.599 8.32822 9.6408 8.23818 9.67386 8.14481C8.92855 8.14481 8.23319 8.14481 7.53879 8.14481C7.08738 8.14481 6.8463 7.93639 6.83958 7.55797C6.83285 7.17956 7.07681 6.94617 7.51958 6.94233C8.65579 6.93176 9.79296 6.926 10.9292 6.94233C11.5467 6.95193 11.8474 7.44848 11.5179 7.96905C11.1145 8.60582 10.6362 9.1965 10.1733 9.7939C9.71036 10.3913 9.23878 10.9666 8.69805 11.6428Z" fill="white"/>
<path d="M15.0302 12.6791C14.1437 13.4715 13.0517 13.07 12.3919 12.4966C11.5764 11.7878 11.5063 9.98025 12.1613 9.17636C12.8461 8.335 13.8815 7.91145 15.0955 8.70958C15.376 8.47043 15.6555 8.25145 16.0675 8.46178C16.4795 8.67212 16.5016 9.04478 16.5016 9.4328V11.93C16.5016 12.3286 16.5199 12.7348 16.0829 12.9576C15.7371 13.1248 15.5709 13.0835 15.0302 12.6791ZM15.0052 10.7073C15.0052 10.1042 14.5874 9.59992 14.0832 9.59031C13.603 9.58167 13.1228 10.0974 13.1439 10.6468C13.1708 11.3796 13.5281 11.7849 14.0947 11.7456C14.6614 11.7062 15.0072 11.3402 15.0052 10.7035V10.7073Z" fill="white"/>
<path d="M21.328 8.27937C22.6726 8.31971 23.7224 9.26671 23.6926 10.7083C23.6619 12.2009 22.7216 13.0835 21.3155 13.121C19.9094 13.1585 18.8721 12.0645 18.9269 10.6027C18.972 9.38677 19.8614 8.26881 21.328 8.27937ZM22.2116 10.7304C22.3288 10.0908 21.7477 9.60671 21.2675 9.5923C20.7671 9.57598 20.3339 10.1302 20.3455 10.7256C20.357 11.2923 20.7873 11.7994 21.2713 11.8167C21.7823 11.835 22.2097 11.3403 22.2116 10.7304Z" fill="white"/>
<path d="M18.5224 9.68344C18.5224 10.4662 18.5455 11.2499 18.5119 12.0308C18.4965 12.389 18.4859 12.7991 18.0259 12.9547C17.5111 13.1315 17.0395 12.8587 17.0337 12.3093C17.0165 10.568 17.0222 8.82576 17.0337 7.08447C17.0337 6.7195 17.2498 6.5082 17.6158 6.45634C17.9817 6.40447 18.2881 6.50436 18.4187 6.87989C18.4843 7.07266 18.5186 7.27466 18.5205 7.47826C18.5224 8.213 18.5224 8.94774 18.5224 9.68344Z" fill="white"/>
</svg>
